<svg width="388.1775268554687px" height="120.8099609375px" xmlns="http://www.w3.org/2000/svg" viewBox="55.911236572265636 14.595019531250003 388.1775268554687 120.8099609375" style="background: rgba(0, 0, 0, 0);" preserveAspectRatio="xMidYMid"><defs><filter id="editing-jagged" x="-100%" y="-100%" width="300%" height="300%"><feTurbulence result="turb" baseFrequency="0.1" numOctaves="1" seed="1"></feTurbulence><feDisplacementMap in="SourceGraphic" in2="turb" scale="10"></feDisplacementMap></filter></defs><g filter="url(#editing-jagged)"><g transform="translate(115.75063049793243, 104.44000053405762)"><path d="M26.05-29.57L26.05-29.57L26.05-29.57Q27.01-31.49 27.01-33.28L27.01-33.28L27.01-33.28Q27.01-35.07 26.82-36.06L26.82-36.06L26.82-36.06Q26.62-37.06 26.18-37.82L26.18-37.82L26.18-37.82Q25.22-39.49 23.30-39.49L23.30-39.49L23.30-39.49Q20.93-39.49 19.01-37.76L19.01-37.76L19.01-37.76Q16.96-35.97 16.96-33.15L16.96-33.15L16.96-33.15Q16.96-31.36 18.21-29.98L18.21-29.98L18.21-29.98Q19.46-28.61 21.38-27.33L21.38-27.33L21.38-27.33Q23.30-26.05 25.47-24.77L25.47-24.77L25.47-24.77Q27.65-23.49 29.57-21.95L29.57-21.95L29.57-21.95Q33.98-18.43 33.98-13.70L33.98-13.70L33.98-13.70Q33.98-10.50 32.29-7.78L32.29-7.78L32.29-7.78Q30.59-5.06 27.78-3.07L27.78-3.07L27.78-3.07Q21.63 1.28 13.50 1.28L13.50 1.28L13.50 1.28Q6.91 1.28 3.52-0.86L3.52-0.86L3.52-0.86Q0.13-3.01 0.13-6.27L0.13-6.27L0.13-6.27Q0.13-12.10 4.67-13.57L4.67-13.57L4.67-13.57Q5.95-14.02 7.90-14.02L7.90-14.02L7.90-14.02Q9.86-14.02 12.10-13.18L12.10-13.18L12.10-13.18Q11.07-10.56 11.07-8.19L11.07-8.19L11.07-8.19Q11.07-3.07 14.72-3.07L14.72-3.07L14.72-3.07Q17.09-3.07 19.04-4.80L19.04-4.80L19.04-4.80Q20.99-6.53 20.99-8.48L20.99-8.48L20.99-8.48Q20.99-10.43 19.74-11.84L19.74-11.84L19.74-11.84Q18.50-13.25 16.64-14.37L16.64-14.37L16.64-14.37Q14.78-15.49 12.64-16.58L12.64-16.58L12.64-16.58Q10.50-17.66 8.64-19.20L8.64-19.20L8.64-19.20Q4.29-22.72 4.29-28.35L4.29-28.35L4.29-28.35Q4.29-32 6.08-34.85L6.08-34.85L6.08-34.85Q7.87-37.70 10.75-39.62L10.75-39.62L10.75-39.62Q16.51-43.52 23.58-43.52L23.58-43.52L23.58-43.52Q30.66-43.52 34.08-41.41L34.08-41.41L34.08-41.41Q37.50-39.30 37.50-35.71L37.50-35.71L37.50-35.71Q37.50-32.58 35.07-30.59L35.07-30.59L35.07-30.59Q32.96-28.93 30.40-28.93L30.40-28.93L30.40-28.93Q27.84-28.93 26.05-29.57ZM54.34 12.80L57.02-0.19L57.02-0.19Q54.91 1.28 51.55 1.28L51.55 1.28L51.55 1.28Q48.19 1.28 45.73 0.51L45.73 0.51L45.73 0.51Q43.26-0.26 41.73-1.92L41.73-1.92L41.73-1.92Q38.78-5.12 38.78-12.61L38.78-12.61L38.78-12.61Q38.78-22.08 44.42-28.03L44.42-28.03L44.42-28.03Q49.92-33.92 59.01-33.92L59.01-33.92L59.01-33.92Q62.27-33.92 64.64-32.83L64.64-32.83L75.97-33.92L67.26 11.52L54.34 12.80ZM53.25-2.69L53.25-2.69L53.25-2.69Q55.23-2.69 56.70-4.70L56.70-4.70L56.70-4.70Q58.18-6.72 58.82-10.18L58.82-10.18L62.21-28.93L62.21-28.93Q60.86-30.08 59.30-30.08L59.30-30.08L59.30-30.08Q57.73-30.08 56.80-29.57L56.80-29.57L56.80-29.57Q55.87-29.06 55.17-27.90L55.17-27.90L55.17-27.90Q53.31-24.90 51.84-16.19L51.84-16.19L51.84-16.19Q51.01-11.01 51.01-6.85L51.01-6.85L51.01-6.85Q51.01-2.69 53.25-2.69ZM98.88-2.69L98.88-2.69L98.88-2.69Q95.81 1.28 88.19 1.28L88.19 1.28L88.19 1.28Q84.22 1.28 81.34-1.12L81.34-1.12L81.34-1.12Q78.46-3.52 78.46-6.98L78.46-6.98L78.46-6.98Q78.46-8.90 78.66-9.86L78.66-9.86L82.94-32.64L95.94-33.92L91.26-9.22L91.26-9.22Q91.01-7.81 91.01-6.98L91.01-6.98L91.01-6.98Q91.01-3.26 93.25-3.26L93.25-3.26L93.25-3.26Q95.74-3.26 97.54-6.66L97.54-6.66L97.54-6.66Q98.11-7.74 98.37-9.15L98.37-9.15L102.91-32.64L115.52-33.92L110.78-8.96L110.78-8.96Q110.59-8 110.59-6.98L110.59-6.98L110.59-6.98Q110.59-5.95 111.17-4.83L111.17-4.83L111.17-4.83Q111.74-3.71 113.60-3.46L113.60-3.46L113.60-3.46Q113.22-1.92 111.87-0.90L111.87-0.90L111.87-0.90Q109.06 1.28 106.02 1.28L106.02 1.28L106.02 1.28Q102.98 1.28 101.18 0.19L101.18 0.19L101.18 0.19Q99.39-0.90 98.88-2.69ZM121.50-1.92L121.50-1.92L121.50-1.92Q120.00-3.58 119.33-6.21L119.33-6.21L119.33-6.21Q118.66-8.83 118.66-13.12L118.66-13.12L118.66-13.12Q118.66-17.41 120.13-21.31L120.13-21.31L120.13-21.31Q121.60-25.22 124.29-28.03L124.29-28.03L124.29-28.03Q129.79-33.92 138.88-33.92L138.88-33.92L138.88-33.92Q142.14-33.92 144.51-32.83L144.51-32.83L155.46-33.92L150.72-8.96L150.72-8.96Q150.53-8.19 150.53-6.78L150.53-6.78L150.53-6.78Q150.53-5.38 151.39-4.48L151.39-4.48L151.39-4.48Q152.26-3.58 153.54-3.46L153.54-3.46L153.54-3.46Q152.90-1.28 150.56 0L150.56 0L150.56 0Q148.22 1.28 145.60 1.28L145.60 1.28L145.60 1.28Q142.98 1.28 141.22 0.29L141.22 0.29L141.22 0.29Q139.46-0.70 138.94-2.37L138.94-2.37L138.94-2.37Q137.92-0.77 135.74 0.26L135.74 0.26L135.74 0.26Q133.57 1.28 130.66 1.28L130.66 1.28L130.66 1.28Q127.74 1.28 125.38 0.51L125.38 0.51L125.38 0.51Q123.01-0.26 121.50-1.92ZM135.01-27.90L135.01-27.90L135.01-27.90Q134.27-26.75 133.63-24.80L133.63-24.80L133.63-24.80Q132.99-22.85 131.94-17.63L131.94-17.63L131.94-17.63Q130.88-12.42 130.88-8.70L130.88-8.70L130.88-8.70Q130.88-4.99 131.46-3.90L131.46-3.90L131.46-3.90Q132.03-2.82 133.06-2.82L133.06-2.82L133.06-2.82Q135.10-2.82 136.61-4.77L136.61-4.77L136.61-4.77Q138.11-6.72 138.69-10.18L138.69-10.18L142.08-28.93L142.08-28.93Q140.74-30.08 139.17-30.08L139.17-30.08L139.17-30.08Q137.60-30.08 136.67-29.57L136.67-29.57L136.67-29.57Q135.74-29.06 135.01-27.90ZM178.82-33.92L178.82-33.92L178.82-33.92Q181.12-33.92 182.91-33.41L182.91-33.41L182.91-33.41Q182.98-33.66 183.10-34.37L183.10-34.37L183.42-36.35L183.42-36.35Q183.68-37.63 184.06-39.74L184.06-39.74L185.09-44.80L197.82-46.08L190.72-8.96L190.72-8.96Q190.66-8.58 190.66-7.94L190.66-7.94L190.66-6.91L190.66-6.91Q190.66-5.50 191.36-4.45L191.36-4.45L191.36-4.45Q192.06-3.39 193.22-3.39L193.22-3.39L193.22-3.39Q191.94-0.38 188.03 0.90L188.03 0.90L188.03 0.90Q186.69 1.28 184.80 1.28L184.80 1.28L184.80 1.28Q182.91 1.28 181.18 0.29L181.18 0.29L181.18 0.29Q179.46-0.70 178.94-2.37L178.94-2.37L178.94-2.37Q177.92-0.70 175.87 0.29L175.87 0.29L175.87 0.29Q173.82 1.28 170.85 1.28L170.85 1.28L170.85 1.28Q167.87 1.28 165.41 0.51L165.41 0.51L165.41 0.51Q162.94-0.26 161.41-1.92L161.41-1.92L161.41-1.92Q158.59-5.18 158.59-12.61L158.59-12.61L158.59-12.61Q158.59-22.21 164.22-28.03L164.22-28.03L164.22-28.03Q169.86-33.92 178.82-33.92ZM178.37-30.08L178.37-30.08L178.37-30.08Q176-30.08 174.72-27.52L174.72-27.52L174.72-27.52Q173.44-24.96 172.13-18.62L172.13-18.62L172.13-18.62Q170.82-12.29 170.82-6.59L170.82-6.59L170.82-6.59Q170.82-2.69 173.12-2.69L173.12-2.69L173.12-2.69Q175.17-2.69 176.61-4.74L176.61-4.74L176.61-4.74Q178.05-6.78 178.62-10.18L178.62-10.18L182.08-28.93L182.08-28.93Q180.74-30.08 178.37-30.08ZM210.98 0.64L210.98 0.64L210.98 0.64Q207.94 0 206.37-0.29L206.37-0.29L206.37-0.29Q204.80-0.58 202.98-0.58L202.98-0.58L202.98-0.58Q201.15-0.58 199.36 0.06L199.36 0.06L199.36 0.06Q198.40-0.51 197.79-1.66L197.79-1.66L197.79-1.66Q197.18-2.82 197.18-4.61L197.18-4.61L197.18-4.61Q197.18-8.38 201.02-11.26L201.02-11.26L217.28-22.98L217.28-22.98Q212.74-24.26 208.61-24.26L208.61-24.26L208.61-24.26Q204.48-24.26 203.01-21.44L203.01-21.44L203.01-21.44Q200.83-24 200.83-28.03L200.83-28.03L200.83-28.03Q200.83-30.72 202.78-32.48L202.78-32.48L202.78-32.48Q204.74-34.24 208.83-34.24L208.83-34.24L208.83-34.24Q211.14-34.24 213.22-33.95L213.22-33.95L213.22-33.95Q215.30-33.66 217.15-33.41L217.15-33.41L220.61-32.90L220.61-32.90Q222.27-32.64 223.97-32.64L223.97-32.64L223.97-32.64Q225.66-32.64 226.94-33.34L226.94-33.34L226.94-33.34Q228.61-31.81 228.61-29.70L228.61-29.70L228.61-29.70Q228.61-26.37 224.51-22.91L224.51-22.91L208.32-10.82L208.32-10.82Q213.31-9.34 215.87-9.34L215.87-9.34L215.87-9.34Q221.25-9.34 223.55-11.90L223.55-11.90L223.55-11.90Q225.34-9.86 225.34-6.30L225.34-6.30L225.34-6.30Q225.34-2.75 223.04-0.74L223.04-0.74L223.04-0.74Q220.74 1.28 216.58 1.28L216.58 1.28L216.58 1.28Q214.02 1.28 210.98 0.64ZM233.70-1.92L233.70-1.92L233.70-1.92Q232.19-3.58 231.52-6.21L231.52-6.21L231.52-6.21Q230.85-8.83 230.85-13.12L230.85-13.12L230.85-13.12Q230.85-17.41 232.32-21.31L232.32-21.31L232.32-21.31Q233.79-25.22 236.48-28.03L236.48-28.03L236.48-28.03Q241.98-33.92 251.07-33.92L251.07-33.92L251.07-33.92Q254.34-33.92 256.70-32.83L256.70-32.83L267.65-33.92L262.91-8.96L262.91-8.96Q262.72-8.19 262.72-6.78L262.72-6.78L262.72-6.78Q262.72-5.38 263.58-4.48L263.58-4.48L263.58-4.48Q264.45-3.58 265.73-3.46L265.73-3.46L265.73-3.46Q265.09-1.28 262.75 0L262.75 0L262.75 0Q260.42 1.28 257.79 1.28L257.79 1.28L257.79 1.28Q255.17 1.28 253.41 0.29L253.41 0.29L253.41 0.29Q251.65-0.70 251.14-2.37L251.14-2.37L251.14-2.37Q250.11-0.77 247.94 0.26L247.94 0.26L247.94 0.26Q245.76 1.28 242.85 1.28L242.85 1.28L242.85 1.28Q239.94 1.28 237.57 0.51L237.57 0.51L237.57 0.51Q235.20-0.26 233.70-1.92ZM247.20-27.90L247.20-27.90L247.20-27.90Q246.46-26.75 245.82-24.80L245.82-24.80L245.82-24.80Q245.18-22.85 244.13-17.63L244.13-17.63L244.13-17.63Q243.07-12.42 243.07-8.70L243.07-8.70L243.07-8.70Q243.07-4.99 243.65-3.90L243.65-3.90L243.65-3.90Q244.22-2.82 245.25-2.82L245.25-2.82L245.25-2.82Q247.30-2.82 248.80-4.77L248.80-4.77L248.80-4.77Q250.30-6.72 250.88-10.18L250.88-10.18L254.27-28.93L254.27-28.93Q252.93-30.08 251.36-30.08L251.36-30.08L251.36-30.08Q249.79-30.08 248.86-29.57L248.86-29.57L248.86-29.57Q247.94-29.06 247.20-27.90Z" fill="#444"></path></g></g><style>text {
  font-size: 64px;
  font-family: Arial Black;
  dominant-baseline: central;
  text-anchor: middle;
}</style></svg>